<?xml version="1.0" standalone="no"?><!DOCTYPE svg PUBLIC "-//W3C//DTD SVG 1.1//EN" "http://www.w3.org/Graphics/SVG/1.1/DTD/svg11.dtd"><svg t="1767768305122" class="icon" viewBox="0 0 1024 1024" version="1.1" xmlns="http://www.w3.org/2000/svg" p-id="9219" xmlns:xlink="http://www.w3.org/1999/xlink" width="400" height="400"><path d="M512 85.333333c235.648 0 426.666667 191.018667 426.666667 426.666667s-191.018667 426.666667-426.666667 426.666667S85.333333 747.648 85.333333 512 276.352 85.333333 512 85.333333z m-106.581333 270.464a35.413333 35.413333 0 0 0-46.464 53.248L461.930667 512l-102.976 102.954667-3.157334 3.626666a35.413333 35.413333 0 0 0 53.248 46.464L512 562.069333l102.954667 102.976 3.626666 3.157334a35.413333 35.413333 0 0 0 46.464-53.248L562.069333 512l102.976-102.954667 3.157334-3.626666a35.413333 35.413333 0 0 0-53.248-46.464L512 461.930667l-102.954667-102.976z" fill="#878F95" p-id="9220"></path></svg>