<?xml version="1.0" standalone="no"?><!DOCTYPE svg PUBLIC "-//W3C//DTD SVG 1.1//EN" "http://www.w3.org/Graphics/SVG/1.1/DTD/svg11.dtd"><svg t="1767769936758" class="icon" viewBox="0 0 1116 1024" version="1.1" xmlns="http://www.w3.org/2000/svg" p-id="3338" xmlns:xlink="http://www.w3.org/1999/xlink" width="435.9375" height="400"><path d="M927.110462 590.865599l-6.60422 11.448081a2.393167 2.393167 0 0 0-0.011505 2.393167 2.35865 2.35865 0 0 0 2.071009 1.19083 2.35865 2.35865 0 0 0 2.053751-1.202336l6.60422-11.448081a2.393167 2.393167 0 0 0 0.011506-2.393167 2.341391 2.341391 0 0 0-2.07101-1.19083 2.335639 2.335639 0 0 0-2.053751 1.202336z m-0.592539-3.509211a2.375908 2.375908 0 1 0-3.583997-2.042245l-11.46534 6.609972a2.375908 2.375908 0 0 0-0.005752 4.130514c0.736359 0.43146 1.66256 0.43146 2.393166-0.011506l11.459587-6.615725a2.467953 2.467953 0 0 0 1.202336-2.07101z m17.730143-14.151899a2.341391 2.341391 0 0 0 1.190831 2.065257 2.404672 2.404672 0 0 0 2.381661-0.011505l11.459586-6.60422a2.375908 2.375908 0 1 0-2.381661-4.113255l-11.448081 6.604219a2.35865 2.35865 0 0 0-1.208088 2.059504z m15.532572 21.964208a2.387414 2.387414 0 0 0-0.011505-4.136267l-11.453834-6.604219a2.375908 2.375908 0 0 0-3.572491 2.042245c0 0.857168 0.460224 1.639549 1.202336 2.059504l11.448081 6.60422a2.370155 2.370155 0 0 0 2.393166 0.034517z m-33.53885-24.967172a2.35865 2.35865 0 0 0 4.113256 0.011506 2.393167 2.393167 0 0 0-0.005753-2.393167l-6.609973-11.44808a2.35865 2.35865 0 0 0-2.053751-1.208089 2.364403 2.364403 0 1 0-2.053751 3.566738l6.615725 11.471092z m16.222909 18.955491a2.35865 2.35865 0 0 0-2.07101 1.190831 2.404672 2.404672 0 0 0 0.011506 2.381661l6.604219 11.459586a2.364403 2.364403 0 1 0 4.124761 0.011506 2.421931 2.421931 0 0 0-0.011505-2.393167l-6.60422-11.448081a2.35865 2.35865 0 0 0-2.059504-1.202336z m-8.55442 5.396131v15.233426a1.904178 1.904178 0 0 0 3.808356 0v-15.233426a1.904178 1.904178 0 1 0-3.808356 0z m11.413564-15.227674c0 1.058516 0.857168 1.909931 1.898425 1.909931h15.227674a1.898425 1.898425 0 1 0 0-3.808356h-15.216168a1.904178 1.904178 0 0 0-1.909931 1.898425z m-37.427746 3.181301h15.216168a1.904178 1.904178 0 1 0 0-3.808356h-15.216168a1.909931 1.909931 0 1 0 0 3.808356z m26.641237-12.684934a1.898425 1.898425 0 0 0 1.898426-1.909931v-15.216168a1.904178 1.904178 0 1 0-3.808357 0v15.216168c0 1.052763 0.857168 1.909931 1.909931 1.909931z m7.047186 1.075775a2.35865 2.35865 0 0 0 2.053751-1.202336l6.609972-11.459587a2.375908 2.375908 0 0 0-2.053751-3.572491 2.324133 2.324133 0 0 0-2.047998 1.202336l-6.615725 11.448081a2.370155 2.370155 0 1 0 2.053751 3.583997zM282.635283 6.789115c24.271082-14.094371 55.583597-5.482423 69.677968 18.788659l42.283113 72.030865 163.627017 284.98818c7.829567 12.529608 23.488701 16.441515 36.012556 9.39433 7.052938-4.694288 11.747227-11.741474 12.529608-19.571041L439.226621 81.949505c-6.264804-10.959093-3.135278-24.271082 7.823814-30.535886 10.964845-6.259051 24.276835-3.129526 30.541639 7.829567l10.959092 18.794412c22.706319-2.352897 44.624504-3.911907 67.330824-3.911907 306.912118 0 555.88199 248.969872 555.88199 555.876237a550.054399 550.054399 0 0 1-18.006278 140.149822l20.359175 35.230175c3.911907 7.047185-0.782381 15.659134-7.047186 19.571041-6.264804 3.911907-15.659134 1.564763-19.576794-5.47667l-6.259051-10.964846v0.782382l-78.295669-135.444029c-4.700041-7.829567-15.659134-10.964845-23.4887-6.264804-7.823814 4.700041-10.959093 15.659134-6.264804 23.488701l92.390039 159.71511 22.700567 39.147835a19.317917 19.317917 0 0 1-7.041433 26.618226 19.317917 19.317917 0 0 1-26.623979-7.041433l-50.106927-86.119482c-0.782381-1.570516-0.782381-2.35865-1.564763-3.91766l-21.141556-36.80069c-8.611948-14.094371-26.618226-18.788659-40.712597-10.959093-14.094371 8.611948-18.788659 26.618226-10.959093 40.712597l75.942772 130.74974H96.301947C36.012556 853.924089 0 745.880668 0 630.001928c0-100.996235 27.400608-196.5158 75.16039-277.940995l-35.230174-60.289391c-10.182464-17.218144-4.700041-39.924463 13.311989-50.106927 17.223897-10.176711 39.924463-4.694288 50.106927 13.31199l118.220132 204.345367c8.611948 12.529608 25.835845 16.441515 39.147834 8.611949 12.529608-7.041433 18.006278-21.135804 14.094371-34.447794L68.113205 75.684701c-10.959093-19.571041-4.694288-44.624504 14.876752-55.583597 19.576794-10.964845 44.630257-4.700041 55.58935 14.871l200.427707 347.624715c9.400082 0 18.794412-3.129526 27.406361-7.823814 25.053463-14.882505 36.012556-44.630257 28.188742-71.254236L263.840871 76.467082c-14.094371-24.265329-5.47667-55.583597 18.794412-69.677967z" fill="#000000" fill-opacity=".06" p-id="3339"></path><path d="M815.258685 667.50446c-2.979953 5.62049-7.380848 6.282062-10.585161 7.283051a87.137729 87.137729 0 0 0-42.674303-11.13743c-48.283288 0-87.52892 39.147834-87.52892 87.52892 0 48.294793 39.136329 87.540426 87.52892 87.540426 48.294793 0 87.540426-39.147834 87.540425-87.540426 0-24.47243-6.178512-42.662798-22.378409-58.540538-1.99047-4.291592 1.645302-9.480622 6.05195-11.022373 0.483236-0.166831 0.931954-0.299146 1.380673-0.425708a348.965119 348.965119 0 0 0-18.334187-21.342905c0.425708 2.375908 0.189843 5.275322-1.000988 7.656983z m-53.685172 144.642763c-5.29258 0-9.486375-4.291592-9.486374-9.486375 0-5.18903 4.291592-9.480622 9.486374-9.480622 5.304086 0 9.480622 4.291592 9.480622 9.480622a9.549655 9.549655 0 0 1-9.480622 9.486375z m8.042421-32.96357c-0.115056 1.438201-1.208089 2.634784-2.64629 2.634785h-12.023361a2.847638 2.847638 0 0 1-2.54274-2.640538l-9.146959-83.231575c-0.224359-2.979953 1.323145-5.522692 3.313615-5.522692h29.109191c1.996223 0 3.422919 2.54274 3.319368 5.522692l-9.377071 83.231575z" fill="#000000" fill-opacity=".15" p-id="3340"></path><path d="M988.561919 950.099474h-293.29523a8.145971 8.145971 0 0 0-7.052938 12.224709c1.449707 2.531234 4.142019 4.084491 7.052938 4.084492h293.29523a8.145971 8.145971 0 0 0 0-16.309201z m70.932079 2.370155a8.191994 8.191994 0 0 0-5.76431-2.393166h-32.583884a8.16323 8.16323 0 0 0-7.070197 12.224709c1.461212 2.531234 4.153525 4.084491 7.070197 4.084491h32.583884a8.145971 8.145971 0 0 0 5.76431-13.916034z m-148.324557 62.809119h-32.583885a4.078738 4.078738 0 1 0 0 8.145972h32.583885a4.026963 4.026963 0 0 0 2.876402-1.190831 4.067233 4.067233 0 1 0-2.876402-6.955141z m-399.238877 0h-32.59539a4.072986 4.072986 0 1 0 0 8.134466h32.59539c1.081527 0 2.128538-0.425708 2.887907-1.190831a4.078738 4.078738 0 1 0-2.887907-6.943635z m342.205573 0h-8.145971a4.067233 4.067233 0 1 0 0 8.145972h8.145971c1.075774 0 2.122785-0.425708 2.887908-1.190831a4.084491 4.084491 0 1 0-2.887908-6.955141z m-760.745109-65.58197h-32.618402a8.042421 8.042421 0 0 0-7.881342 6.345343v3.578244a8.076937 8.076937 0 0 0 7.881342 6.345344h32.618402a8.094196 8.094196 0 0 0 8.105701-8.099949v-0.092045c0-2.145796-0.857168-4.199547-2.375908-5.706782a8.048173 8.048173 0 0 0-5.729793-2.370155z m49.865309 0.402696h-18.293918c-2.893661 0-5.591726 1.553257-7.041433 4.084491a8.117207 8.117207 0 0 0 0 8.140218c1.449707 2.531234 4.136266 4.084491 7.047185 4.084492h456.243417c2.168807 0 4.239817-0.868673 5.752804-2.39892a8.128713 8.128713 0 0 0-5.752804-13.898776H143.256337v-0.011505z m686.424628 65.179274H528.222506a4.084491 4.084491 0 0 0-3.526469 2.036493 4.10175 4.10175 0 0 0 0 4.067233 4.084491 4.084491 0 0 0 3.526469 2.03074h301.464212a4.044222 4.044222 0 0 0 4.067233-4.078738 4.055727 4.055727 0 0 0-4.067233-4.055728z m-206.646489-61.094783a8.117207 8.117207 0 0 0 0 8.140218c1.449707 2.531234 4.142019 4.084491 7.052939 4.084492h32.583884a8.145971 8.145971 0 0 0 0-16.297696h-32.583884a8.08269 8.08269 0 0 0-7.052939 4.067233z" fill="#000000" fill-opacity=".45" p-id="3341"></path><path d="M261.649053 887.359388h-7.110467v-8.399094c0-1.351909-2.013482-2.444942-3.359637-2.444942-1.334651 0-3.359638 1.093033-3.359638 2.439189v8.404847h-5.672265c-1.323145 0-2.427683 2.013482-2.427684 3.348133 0 1.346156 1.098786 3.371143 2.427684 3.371143h5.672265v4.383637c0 1.346156 2.024987 2.450695 3.359638 2.450695 1.340403 0 3.359638-1.104538 3.359637-2.450695v-4.383637h7.110467c1.340403 0 2.439189-2.013482 2.439189-3.371143-0.011506-1.334651-1.093033-3.348132-2.439189-3.348133z" fill="#ECF5FF" p-id="3342"></path><path d="M142.335888 681.564314h7.012669v3.785346c0 1.346156 2.013482 2.427683 3.359637 2.427683 1.346156 0 3.359638-1.104538 3.359638-2.427683v-3.785346h5.76431c1.346156 0 2.427683-3.710559 2.427684-5.062468 0-1.346156-1.093033-5.039457-2.427684-5.039456h-5.76431v-5.62049c0-1.346156-2.024987-2.439189-3.359638-2.439189-1.346156 0-3.359638 1.093033-3.359637 2.439189v5.62049h-7.012669c-1.346156 0-2.450695 3.6933-2.450695 5.045209 0.011506 1.346156 1.104538 5.056715 2.450695 5.056715z m19.133828 210.920823c8.145971 0.75937 4.372131-21.918185 10.930328-27.325821 6.56395-5.407636 25.916384-6.184265 25.916384-11.655182 0-6.989657-20.825152-3.929165-25.956653-9.348307-5.137254-5.407636-6.552444-25.082227-7.708758-26.445642a3.969435 3.969435 0 0 0-3.279099-1.150561c-6.339591 0-3.664536 20.014007-10.228486 27.498405-1.955954 2.220583-4.999187 3.422919-8.341567 4.211053-7.915859 1.829392-17.396481 1.236853-17.39648 5.844849 0 4.34912 8.243769 5.18903 16.044571 7.380848 3.969435 1.110291 7.806556 2.571504 10.401071 5.022199 7.708758 7.28305 3.336627 25.31234 9.618689 25.968159zM298.720125 446.015735c13.524843 0 24.564475-11.022373 24.564475-25.041957 0-14.025337-11.028126-25.047711-24.564475-25.047711-13.530596 0-24.552969 11.022373-24.55297 25.047711 0.023011 14.019584 10.527632 25.041958 24.55297 25.041957z m0-37.065319c7.012669 0 12.529608 5.505434 12.529608 12.518103a12.414552 12.414552 0 0 1-12.529608 12.523855 12.403046 12.403046 0 0 1-12.518103-12.523855c0-7.018421 5.505434-12.518103 12.518103-12.518103z m550.313275 148.796288c10.516127 0 18.541289-8.007904 18.541288-18.541289 0-10.516127-8.013657-18.535536-18.541288-18.535536-10.527632 0-18.541289 8.007904-18.541289 18.535536 0.011506 10.527632 8.025162 18.541289 18.541289 18.541289z m0-24.541464c3.509211 0 6.011681 2.508223 6.01168 6.011681 0 3.509211-2.508223 6.011681-6.01168 6.01168-3.514964 0-6.011681-2.490964-6.011681-6.01168 0-3.509211 2.508223-6.005928 6.011681-6.005928zM356.328709 359.349736h7.518915v8.01941c0 3.509211 2.508223 6.011681 6.011681 6.01168 3.509211 0 6.011681-2.490964 6.01168-6.01168v-7.524669h7.518916c3.509211 0 6.005928-2.496717 6.005928-6.01168 0-3.509211-2.490964-6.011681-6.005928-6.011681h-7.518916v-8.013657c0-3.514964-2.508223-6.011681-6.01168-6.01168-3.514964 0-6.011681 2.508223-6.011681 6.01168v7.518916h-7.518915c-3.509211 0-6.011681 2.508223-6.011681 6.023186 0.011506 3.509211 2.519728 6.000175 6.011681 6.000175z m334.168905 175.615862a30.599167 30.599167 0 1 0 30.60492 30.587661 30.593414 30.593414 0 0 0-30.60492-30.587661z m144.107752 146.224784a23.488701 23.488701 0 0 0-1.386426 0.425708c-4.418154 1.553257-8.048173 6.719276-6.057703 11.022373 16.20565 15.87774 22.378409 34.068108 22.378409 58.540538 0 48.404097-39.239879 87.540426-87.534672 87.540426-48.404097 0-87.52892-39.245632-87.52892-87.540426 0-48.404097 39.245632-87.52892 87.52892-87.52892 15.54983 0 29.98937 4.067233 42.674303 11.13743 3.192806-0.989482 7.605208-1.651055 10.58516-7.283051 1.190831-2.381661 1.426696-5.269569 1.012494-7.674241l-0.023011-0.155326a13.058866 13.058866 0 0 0-1.766111-1.766111c-8.84206-7.438376-34.177411-13.23145-52.597891-13.23145-58.874201 0-106.599467 47.736771-106.599467 106.599467 0 58.868448 47.736771 106.610972 106.599467 106.610972 58.868448 0 106.495916-47.742524 106.610972-106.714523 0-7.553432-0.540764-14.635135-1.651055-21.35441-3.037481-18.357199-10.44134-33.809232-23.598004-47.771288-2.818874-1.553257-5.223546-1.812133-8.652218-0.857168z" fill="#000000" fill-opacity=".45" p-id="3343"></path><path d="M761.573513 793.180226c-5.177524 0-9.486375 4.291592-9.486374 9.480622 0 5.177524 4.193794 9.486375 9.486374 9.486375 5.177524 0 9.480622-4.291592 9.480622-9.486375 0-5.177524-4.188042-9.480622-9.480622-9.480622z m14.11163-102.75084h-29.103438c-1.984718 0-3.526469 2.536987-3.313615 5.516939l9.146959 83.231575c0.115056 1.438201 1.213842 2.54274 2.536986 2.64629h12.023362c1.438201 0 2.54274-1.219595 2.652043-2.64629l9.377071-83.231575c0.097798-2.979953-1.340403-5.522692-3.319368-5.522692z m-141.66281-40.338665a5.539951 5.539951 0 0 0-4.303098 0.94346l-56.377484 39.654081a2.692312 2.692312 0 0 1-3.906154-0.862921L503.013717 575.074151c-1.59928-2.778605-4.142019-2.795863-5.631996 0.057528l-123.167543 196.717149c-1.495729 2.876402-0.126562 5.177524 3.048986 5.177524h242.802865a156.366978 156.366978 0 0 1-0.765123-15.457786c0-35.207163 11.701204-67.687497 31.381549-93.76496l-13.058867-15.227673a5.447906 5.447906 0 0 0-3.601255-2.490965z" fill="#000000" fill-opacity=".45" p-id="3344"></path><path d="M333.449805 817.980567c0 1.443954 1.288628 2.629032 2.876402 2.629031h294.572353a155.009316 155.009316 0 0 1-6.765298-20.405197H353.843497V514.548895h408.063679v91.87804a156.936506 156.936506 0 0 1 20.405197-0.368179V496.784235c0-1.443954-1.288628-2.640537-2.864896-2.640537H336.308949c-1.587774 0-2.876402 1.185078-2.876402 2.64629v321.190579h0.017258z" fill="#000000" fill-opacity=".45" p-id="3345"></path></svg>