<?xml version="1.0" standalone="no"?><!DOCTYPE svg PUBLIC "-//W3C//DTD SVG 1.1//EN" "http://www.w3.org/Graphics/SVG/1.1/DTD/svg11.dtd"><svg t="1767330533310" class="icon" viewBox="0 0 1024 1024" version="1.1" xmlns="http://www.w3.org/2000/svg" p-id="32168" xmlns:xlink="http://www.w3.org/1999/xlink" width="400" height="400"><path d="M845.277867 1014.340267H169.0624C77.277867 1014.340267 0 937.0624 0 845.277867V169.0624C0 77.277867 77.277867 0 169.0624 0h676.215467c91.784533 0 169.0624 77.277867 169.0624 169.0624v676.215467c0 91.784533-77.277867 169.0624-169.0624 169.0624z" fill="#FF5500" p-id="32169"></path><path d="M673.3824 741.034667l71.338667-31.3344-48.264534-124.7232-57.924266 18.8416c3.208533 13.243733 6.417067 25.941333 9.489066 38.673066a6.417067 6.417067 0 0 1-0.477866 5.2224c-14.779733 11.229867-31.1296 19.831467-48.469334 25.4976v-97.5872h122.197334V528.384h-122.094934v-58.299733h122.4704v-47.069867h-217.736533c12.424533-14.984533 22.869333-31.812267 30.8224-49.937067l-36.795733-10.752a22.050133 22.050133 0 0 1 3.447466-1.8432c32.9728-9.9328 65.809067-21.026133 99.328-29.627733a204.1856 204.1856 0 0 1 86.493867-4.676267c17.339733 1.4336 33.450667 9.9328 45.1584 23.688534 11.707733 13.789867 18.056533 31.744 17.749333 50.3808 1.297067 42.257067 0.682667 84.650667 0.8192 126.941866 0 52.804267 0.477867 105.540267 0 158.3104 0.955733 13.448533-1.570133 26.862933-7.406933 38.8096a70.212267 70.212267 0 0 1-25.4976 28.7744 85.1968 85.1968 0 0 1-61.166933 10.171734c-16.5888-2.901333-32.9728-7.168-50.005334-11.127467l-12.9024 54.818133c15.633067 2.901333 30.242133 6.212267 45.021867 8.430934a264.0896 264.0896 0 0 0 106.0864-3.413334 117.930667 117.930667 0 0 0 63.419733-34.816c17.408-18.158933 29.184-41.5744 33.928534-67.106133 3.754667-22.1184 6.212267-44.509867 7.168-67.003733 6.3488-81.92 4.642133-164.215467-5.051734-245.76a121.821867 121.821867 0 0 0-19.524266-55.5008 111.3088 111.3088 0 0 0-42.3936-38.0928 181.248 181.248 0 0 0-32.256-13.9264 337.8176 337.8176 0 0 0-143.2576-9.147734 847.189333 847.189333 0 0 0-141.585067 29.7984c-1.6384 0.477867-3.447467 0.750933-5.7344 1.297067 7.509333-15.701333 14.7456-30.6176 22.3232-46.045867L391.236267 238.933333a663.893333 663.893333 0 0 1-39.936 98.4064A311.296 311.296 0 0 1 290.133333 422.434133l5.12 3.4816c17.988267 10.8544 35.976533 21.674667 53.998934 32.1536a6.7584 6.7584 0 0 0 6.212266-2.048c9.591467-9.489067 18.5344-19.7632 26.692267-30.6176a87.8592 87.8592 0 0 1 47.104-35.6352c3.7888-1.3312 7.4752-3.106133 12.629333-5.3248a599.108267 599.108267 0 0 1-70.382933 109.021867L409.6 528.759467h-39.185067v47.342933h124.8256v111.957333c-8.055467-0.955733-15.291733-1.467733-22.459733-2.730666a30.583467 30.583467 0 0 1-22.084267-10.478934 35.054933 35.054933 0 0 1-8.704-24.029866v-1.058134a143.2576 143.2576 0 0 1 0-14.336c0.8192-10.820267 1.9456-21.6064 2.7648-32.392533a9.3184 9.3184 0 0 0-2.2528-0.682667h-81.851733a5.2224 5.2224 0 0 0-4.164267 1.024 5.802667 5.802667 0 0 0-2.184533 4.778667c-3.413333 21.0944-3.754667 42.5984-0.955733 63.829333 1.706667 21.845333 11.195733 42.222933 26.487466 56.9344 15.291733 14.677333 35.191467 22.528 55.739734 21.981867 32.085333 1.570133 64.2048-0.136533 95.914666-5.12a282.043733 282.043733 0 0 0 126.8736-52.292267 14.062933 14.062933 0 0 1 2.4576-1.1264l12.6976 48.878934-0.136533-0.2048zM136.533333 741.376l97.109334 63.931733c0.955733-2.082133 1.774933-3.413333 2.389333-4.846933 19.114667-42.564267 38.0928-84.923733 57.070933-127.522133a400.384 400.384 0 0 0 33.3824-112.605867 87.04 87.04 0 0 0-0.853333-39.3216 83.1488 83.1488 0 0 0-17.92-34.338133 948.462933 948.462933 0 0 0-55.3984-54.135467c-14.097067-12.970667-29.866667-24.337067-45.294933-36.6592l-40.379734 65.809067c1.6384 1.160533 2.594133 1.979733 3.754667 2.730666 24.200533 15.837867 48.366933 31.300267 72.226133 47.7184 7.8848 5.393067 14.9504 12.0832 21.026134 19.6608 10.752 13.312 13.550933 31.470933 7.3728 47.479467-3.037867 9.181867-7.4752 17.783467-13.141334 25.531733a1310.685867 1310.685867 0 0 1-56.2176 68.539734c-20.7872 23.313067-43.042133 45.090133-65.092266 68.027733H136.533333zM264.8064 249.617067a67.1744 67.1744 0 0 0-48.469333 16.5888c-5.973333 5.0176-10.820267 11.264-14.2336 18.3296a59.0848 59.0848 0 0 0 10.24 66.3552 67.584 67.584 0 0 0 48.9472 20.445866 67.754667 67.754667 0 0 0 48.469333-21.777066c6.0416-6.212267 10.410667-13.994667 12.9024-22.528 2.491733-8.533333 2.8672-17.6128 1.262933-26.350934a65.7408 65.7408 0 0 0-21.162666-36.6592c-10.581333-9.216-24.029867-14.336-37.956267-14.404266z m230.468267 279.005866h-85.2992c2.048-2.321067 3.413333-3.857067 4.676266-5.4272 15.121067-16.247467 30.208-32.529067 45.397334-48.4352a14.677333 14.677333 0 0 1 8.942933-4.164266c8.704-0.512 17.3056 0 26.3168 0v58.026666z" fill="#FFFFFF" p-id="32170"></path></svg>