<?xml version="1.0" standalone="no"?><!DOCTYPE svg PUBLIC "-//W3C//DTD SVG 1.1//EN" "http://www.w3.org/Graphics/SVG/1.1/DTD/svg11.dtd"><svg t="1767081087972" class="icon" viewBox="0 0 1024 1024" version="1.1" xmlns="http://www.w3.org/2000/svg" p-id="37703" xmlns:xlink="http://www.w3.org/1999/xlink" width="400" height="400"><path d="M128 0h768c85.33504 0 128 42.66496 128 128v768c0 85.33504-42.66496 128-128 128H128c-85.33504 0-128-42.66496-128-128V128C0 42.66496 42.66496 0 128 0z" fill="#FE6201" p-id="37704"></path><path d="M604.8 603.71456c10.97728 0.15872 21.98528 0.09216 32.96256 0.06144 1.664 0 2.56-0.18944 2.20672 2.27328-2.56 16.54272-4.80256 33.152-7.168 49.69472l-5.44256 37.47328c-0.03072 0.31744-0.256 0.64-0.384 0.95744a169.40544 169.40544 0 0 1-2.59072 18.01728l-0.128 1.05472v0.512l-1.664 11.97056-1.72544 11.96544c-1.92 12.48256-3.29728 24.96 0 37.41184 3.26144 12.25216 10.58816 21.30944 21.66272 27.58144 7.22944 4.096 14.208 8.576 22.04672 11.48928 1.34656 0.512 1.408 1.37728 1.28 2.46272l-2.78528 20.352c-0.86016 6.144-1.75616 12.31872-2.52416 18.49856-0.22528 2.01216-0.54784 2.816-3.04128 2.176-15.71328-4.03456-30.336-10.24-43.20256-20.224a73.6768 73.6768 0 0 1-17.34144-19.13856c-1.34656-2.176-1.92-1.792-3.42528-0.18944-10.52672 11.648-23.26528 20.41344-37.12 27.70944-0.22528 0.128-0.512 0.09728-0.79872 0.128a7.8848 7.8848 0 0 1-3.61472 1.63328 41.27744 41.27744 0 0 1-9.69728 3.61472 16.64 16.64 0 0 1-5.376 1.60256c-2.33472 1.05472-4.89472 1.50016-7.39328 2.048-0.35328 0-0.70144 0.06144-1.05472 0.128a26.66496 26.66496 0 0 1-6.97856 1.46944c-1.024 0.28672-2.01216 0.768-3.16416 0.54272-1.05984 0.32256-2.08384 0.768-3.2 0.512-0.67584 0.16384-1.34656 0.384-2.01728 0.48128-2.816 0.48128-3.04128 0.19456-2.176-2.49344l-0.06656-1.44384c0-0.95744 0.19456-1.92 0.60928-2.78016v-2.176l0.512-1.536 0.03072-1.05984c-0.06144-0.768-0.18944-1.50016 0.384-2.14016l0.16384-1.60256c0.512-5.12 1.11616-10.24 2.10944-15.29344v-0.54784l0.03072-0.512v-0.896l0.384-0.768c0.16384-1.408-0.256-2.87744 0.57856-4.15744 0.09728-1.28-0.256-2.56 0.48128-3.74272v-0.96256c0.128-0.79872 0.73216-1.18272 1.85344-1.37728 2.62656-0.44544 5.18656-1.152 7.77728-1.75616l0.95744-0.16384c8.32-2.97472 16.32256-6.62016 23.45984-11.99616l3.84-2.75456c5.888-5.30944 11.10016-11.16672 15.32416-17.92 3.42528-5.504 5.95456-11.42272 8.192-17.46944 3.61984-11.17184 4.57728-22.784 6.33856-34.27328l2.59072-16.54272c0.79872-5.98528 1.536-12.00128 2.37056-17.98656 1.31072-9.27744 2.688-18.56 4.06016-27.83744 1.536-10.46528 3.10784-20.96128 4.608-31.45728 1.34656-9.18528 2.688-18.40128 3.87584-27.58656 0.28672-2.176 0.86016-3.072 3.35872-3.03616h0.03072z m190.08-73.44128l-15.16544 27.06944h114.97472l1.31072-0.09216v2.10944a0.74752 0.74752 0 0 0-0.44544 0.45056l-0.16384 1.152-0.44544 3.584-0.06656 0.896-0.896 6.46144-1.46944 10.91072c-0.41472 2.75456-0.45056 5.60128-1.34656 8.25856a50.93888 50.93888 0 0 1-0.384 4.992l-1.408 9.91744c-1.024 8.51456-2.33472 16.99328-3.51744 25.50784l-4.03456 29.75744-3.968 29.184c-1.31072 9.82528-2.688 19.65056-4.02944 29.44l-3.39456 25.05728-4.12672 29.952c-1.12128 8.32-2.10944 16.70144-3.35872 25.02144-1.28 8.38656-1.408 16.99328-4.67456 24.99584-6.656 16.31744-18.78016 26.07616-36.15744 29.53216-3.65056 0.73728-7.36256 0.93184-11.07456 0.93184-18.01216 0-36.02944-0.06656-54.07744 0.06144-2.59072 0-2.75456-0.768-2.40128-3.04128 1.28-8.47872 2.33472-17.024 3.52256-25.53344 0.512-3.93728 1.11616-7.808 1.536-11.74528 0.22016-1.92 1.536-1.34144 2.56-1.34144 11.83744-0.03584 23.61344-0.09728 35.42016 0a25.344 25.344 0 0 0 11.55584-2.21184c5.53472-3.584 7.296-9.05216 8.064-15.19616 1.408-11.20256 3.10272-22.4 4.66944-33.57184l1.50528-11.74016 1.536-11.71456 3.42528-25.53344 3.968-29.184 3.51744-25.76384 4.06528-29.44c0.18944-1.28 0.54272-2.59072 0.48128-3.90144-0.16384-3.55328 1.72544-6.08256 3.90144-8.576 4.89472-5.57056 9.66656-11.20256 14.464-16.83456 0.03072-0.384 0.83456-0.98816-0.22528-1.08544-0.79872-0.09728-1.59744-0.03072-2.39616-0.03072-48.80384 0-97.60256 0-146.40128-0.09728-0.54272 0-3.2 1.37728-1.76128-1.43872 1.28-2.40128 2.62656-4.70528 4.25472-6.88128 1.34656-2.33472 2.52928-4.80256 4.25984-6.88128l13.34272-22.07744c6.016-9.92256 12.09344-19.77856 18.10944-29.66528 0.64-1.09056 1.28-1.69472 2.65728-1.69472 14.62272 0.06144 29.28128 0.03072 44.288 0.03072z m-60.34944 95.13472c13.50144 0.15872 26.97216 0.09728 40.47872 0.09728 3.04128 0 3.04128 0 2.01728 2.944-13.85984 39.68-27.71456 79.36-41.63584 119.04-0.79872 2.23744-0.47616 2.71872 1.92 2.688 8.77056-0.128 17.57184-0.128 26.33728 0 2.048 0.03072 2.49856-0.60928 2.52928-2.52928 0.28672-13.88544 0.57344-27.83744 1.12128-41.728 0.18944-5.43744 0.31744-10.88 0.34816-16.35328 0-1.59744 0.32256-2.304 2.176-2.26816 13.50656 0.06144 27.008 0.06144 40.48384 0 1.59744 0 2.14016 0.31744 2.10944 2.01216-0.41472 20.608-0.48128 41.216-1.28 61.824-0.31744 8.35584-2.10944 16.67584-3.23072 25.02656-0.60928 4.25472-1.47456 8.47872-1.792 12.76928-0.15872 2.26816-0.96256 2.62144-3.01056 2.59072l-53.66272-0.03072h-67.84c1.43872-10.69056 3.072-21.08928 4.16256-31.52384 1.664-15.39072 8.50944-29.14816 13.44-43.52 10.07616-29.44 20.76672-58.65472 31.104-87.99744 0.768-2.24256 1.72544-3.04128 4.224-3.04128z m-36.70528-74.94144c2.56 0 2.97472 0.768 2.65728 2.97472l-5.72928 39.32672-4.93056 35.68128c-1.69472 11.904-3.51744 23.77728-5.18144 35.68128-1.69472 11.904-3.26656 23.808-4.96128 35.712-1.85344 13.11744-3.77344 26.20416-5.66272 39.32672-1.28 9.02144-2.62656 18.048-3.84 27.06944-0.128 1.24928-0.48128 1.664-1.73056 1.664-11.35616 0-22.71744 0-34.07872 0.09728-1.92 0-1.59744-1.24928-1.46944-2.304l2.26816-16.95744 3.55328-25.53856 4.06528-29.184 3.93728-28.95872 4.096-29.44 3.35872-24.51456c0.99328-7.296 1.95072-14.592 3.04128-21.888 0.22016-1.536 0.15872-2.14016-1.73056-2.14016-21.56544 0.06144-43.10528 0.06144-64.67072 0-1.92 0-2.65728 0.41472-2.944 2.49344-1.18272 9.50272-2.65728 18.944-4.03456 28.38528l-4.48 31.51872-4.57216 32.03072-4.44928 31.26784-4.06528 28.12416c-1.21344 8.41728-2.52928 16.80384-3.61472 25.25184-0.22528 1.62816-0.92672 1.792-2.20672 1.792-11.10528 0-22.21056 0-33.28 0.09216-1.792 0-2.11456-0.64-1.88928-2.176l3.38944-23.68 4.06528-28.16 4.608-32 3.90656-27.648 4.06016-28.38016 3.93728-27.61728c0.73728-5.376 1.37728-10.78272 2.27328-16.128 0.256-1.60256-0.256-2.688-0.96256-3.90656-4.92544-8.54016-9.728-17.11616-14.78144-25.6-1.34656-2.23744-0.512-2.23744 1.43872-2.23744h120.54528l40.064-0.03072z m-500.736 263.77216c1.21344-0.256 1.72544-0.09216 1.536 1.37728-1.792 12.928-3.55328 25.856-5.27872 38.81472-0.29184 2.01728-0.896 3.04128-3.39456 2.944-6.656-0.256-13.312-0.06144-19.968-0.06144-7.10656-0.03072-14.208-0.09728-21.31456 0-1.85344 0.03072-2.14016-0.384-1.88416-2.24256a1508.352 1508.352 0 0 0 3.99872-29.44c0.512-4.06016 0.35328-4.25472 4.54144-4.70016 14.04928-1.44384 28.0064-3.456 41.76384-6.69184z m69.53472-263.77216l20.80256 0.06144h214.272c1.98144 0.09728 1.792 0.57856 1.408 3.52256-1.21856 8.76544-2.27328 17.56672-3.4304 26.33216l-4.06016 31.36-3.38944 26.624-3.52256 26.88-3.39456 26.368-3.51744 27.136-3.42528 26.624a3793.80224 3793.80224 0 0 1-3.42016 26.65984c-1.15712 8.96-2.21184 17.92-3.52256 26.88-1.28 8.63744-1.28 17.536-4.736 25.75872-7.45472 17.536-20.992 27.70944-39.424 31.84128-3.584 0.82944-7.23456 0.73216-10.88 0.73216l-54.33344 0.06656c-2.048 0-2.37056-0.32256-2.048-2.46272 1.792-12.32384 3.38944-24.704 4.92544-37.05856 0.22528-1.85344 1.12128-2.01728 2.62144-1.98144 12.16 0 24.32-0.32256 36.48 0.09216a20.8384 20.8384 0 0 0 15.08352-5.49376 20.87424 20.87424 0 0 0 6.67648-14.60224c0.80384-10.65472 2.62656-21.248 3.968-31.872l3.36384-26.91072 3.51744-27.16672 3.39456-26.88 3.48672-27.42272 2.91328-22.97856c0.73728-5.76 1.46944-11.48928 2.14016-17.24928 0.1024-0.86016 0.70656-1.37216 1.21856-1.95072l18.14528-21.248H322.59072l-61.11744 0.03072c-2.176 0-2.97984-0.18944-2.59584-2.71872 1.50528-9.88672 2.78528-19.80928 4.16256-29.696 0.28672-2.23744 0.54272-4.54144 0.768-6.81472 0.19456-1.69472 0.79872-2.46272 2.816-2.46272z m36.16256 124.22144l50.71872 0.03072 0.768 0.09728v0.32256c-2.65728 6.17472-6.46656 11.648-10.17856 17.152-4.02944 6.07744-7.99744 12.22144-13.15328 17.43872-0.34816 0.35328-0.512 0.896-0.768 1.37728l-3.072 3.712-2.26816 2.74944-2.40128 2.944c5.27872 1.12128 10.52672 1.92 15.67744 3.26656 21.44256 5.59616 39.71584 16.41472 54.59456 32.768a101.59616 101.59616 0 0 1 17.43872 26.24c0.73728 1.59744 0.512 2.176-1.21344 2.688-7.04 2.07872-14.08 4.28544-21.12 6.43072-6.68672 2.10944-13.40928 4.15744-20.06528 6.33344-1.92 0.64-2.49344-0.70144-3.2-1.85344a128.49152 128.49152 0 0 0-19.99872-24.832c-1.69472-1.63328-3.48672-3.2-5.21728-4.80256a2.2272 2.2272 0 0 1-1.60256-1.152l-1.536-1.21344a83.15904 83.15904 0 0 0-31.3856-14.94528c-2.56-0.54272-5.18656-0.92672-7.81312-1.28a7.43936 7.43936 0 0 0-6.04672 1.76128 243.01568 243.01568 0 0 1-53.02272 32.384 240.5376 240.5376 0 0 1-53.44256 16.57344 307.77344 307.77344 0 0 1-54.71744 5.60128c-1.60256 0.03072-1.92-0.128-1.69984-1.792 1.44384-9.75872 2.75456-19.55328 4.13184-29.34272 0.512-3.65056 1.08544-7.26528 1.664-10.91072-0.06656-1.792 0-3.2 2.56-3.2a202.23488 202.23488 0 0 0 82.91328-17.98656c0.57344-0.256 1.1776-0.41472 1.75616-0.60928 10.08128-5.12 20.06528-10.368 29.37856-16.82944 7.99744-5.53472 15.67744-11.392 22.75328-18.048 1.024-0.96256 2.176-1.792 3.26144-2.688l12.22656-12.61056 0.64-0.768 0.60416-0.768c3.42528-4.28544 6.88128-8.50944 10.24-12.86144 0.73728-0.96256 1.37728-1.37728 2.56-1.37728h0.03584z m-77.952-66.74944c2.688 0 1.46944 1.536 1.50016 2.688-0.256 1.98144-0.28672 4.02944-0.92672 5.94944l-0.128 1.50528 0.06656 0.73728a1.9968 1.9968 0 0 1-0.41984 1.37216l-1.11616 7.90528c-0.03584 1.60256 0.09216 3.23072-0.64512 4.76672v1.05984c-0.95744 7.13216-1.85344 14.30016-2.84672 21.43744-0.35328 2.78528-0.86528 5.504-1.28 8.22272l-0.128 0.99328c0.06656 1.09056 0.19456 2.20672-0.44544 3.2l-0.09728 1.05472a5.2224 5.2224 0 0 1-0.512 3.13856l-0.03072 1.08544c0.03072 0.73728 0.18944 1.50528-0.384 2.14528l-0.16384 1.56672c-0.01024 2.10432-0.3328 4.1984-0.95744 6.21056-0.79872 0.54272-0.19456 1.152-0.09728 1.72544 0.256 1.28-0.35328 2.46784-0.512 3.68128-0.73728 5.82656-1.408 11.648-2.20672 17.47456-0.768 5.888-1.76128 11.776-2.432 17.69472-0.19456 1.59744-0.79872 2.304-2.14528 2.87744a183.49568 183.49568 0 0 1-44.25216 12.73856c-0.6144 0.09728-1.18784 0.256-2.08384 0.44544l1.76128-13.34272c1.31072-9.82528 2.65728-19.61472 4.03456-29.44 0.70144-5.12 1.46944-10.24 2.23744-15.36-0.09728-0.896-0.19456-1.82272 0.384-2.62144l0.128-1.60256c-0.06144-0.73728-0.18944-1.46944 0.384-2.10944l0.15872-1.60256c-0.09216-0.896-0.15872-1.792 0.41472-2.59072l0.1024-1.60256c-0.16384-1.11616 0.22016-2.14016 0.5376-3.16416v-0.54784l2.69312-21.02272 4.224-31.20128c0.06144-0.41472 0.28672-0.79872 0.44544-1.21344v-2.11456c0.06656-1.408 0.512-2.14016 2.24256-2.14016 14.14144 0.06144 28.3136 0.09216 42.496 0z m103.03488 10.88c13.76256 0.15872 27.52 0.15872 41.28256 0.03072 2.20672 0 2.62656 0.64 2.14528 2.62144-2.75456 12.00128-5.72928 23.90528-9.6 35.61984-0.384 1.152-0.67584 2.176-2.432 2.176-15.68256-0.09728-31.39584-0.06656-47.488-0.06656 2.78528-6.4 5.43744-12.38528 7.48544-18.62144 2.01728-6.21056 3.84-12.48256 5.18656-18.88256 0.41472-1.95072 1.08544-2.87744 3.38944-2.87744h0.03072z m-119.68-82.78528c12.16512-2.20672 24.48384 4.28544 28.48256 15.32928 4.224 11.67872-1.21856 25.56416-12.8 31.90272-4.096 2.42688-8.77568 3.68128-13.53728 3.61472-14.23872 0.06656-25.05728-10.14272-25.27744-23.61344-0.256-12.8 10.368-24.96 23.168-27.23328h-0.03072zM739.968 384l-6.81472 0.09728c2.23744-0.16384 4.51072-0.16384 6.81472-0.09728z m-10.624 0.384h1.88928l-2.432 0.06656 0.54272-0.06656z m-0.79872 0.54272v-0.44544c1.34144 0.15872 4.92544 0.31744 9.91744 0.44544h-9.91744z m135.296-123.52c-97.24928 0.09728-194.49856 0.09728-291.74272 0-2.52928 0-2.88256 1.05984-3.16928 2.97984-1.664 12.22144-3.328 24.4736-5.12 36.70016-0.256 1.82784 0.28672 2.01728 1.85344 2.01728 5.504-0.06656 11.008-0.03072 16.54784-0.03072l103.71072-0.03584c2.176 0 2.62144 0.38912 2.23744 2.6624-1.05472 5.6576-1.62816 11.4176-2.432 17.152-0.98816 7.03488-2.07872 14.04416-3.03616 21.08416-0.16384 1.28-0.64 1.56672-1.85856 1.536-3.2-0.09728-6.4-0.03072-9.6-0.03072h-104.25344c-1.73056 0-2.78528-0.06656-3.01056 2.304-0.512 5.66272-1.63328 11.264-2.40128 16.92672-0.82944 5.888-1.50016 11.84256-2.23744 17.73056-0.57856 0.79872-0.57856 1.72544-0.45056 2.65216l-0.06144 1.05472c0.41472 1.792 1.88928 0.83456 2.78528 0.83456 37.27872 0.06656 74.55744 0.06656 111.83616 0.06656h1.34656c1.43872-0.128 2.048 0.18944 1.69472 1.92-0.64 3.072-0.896 6.20544-1.31072 9.30816l-0.70656 5.21728c-1.92 13.28128-3.93216 26.52672-5.66272 39.808-0.31744 2.56-1.05472 3.13344-3.51744 3.10272-42.624-0.06144-85.31456 0-127.96928-0.128-2.88256 0-3.35872 1.12128-3.584 3.328-0.384 3.39456-0.896 6.784-1.34656 10.17856l-3.84 26.78272c-0.128 0.96256 0.16384 1.34144 1.09056 1.34144h312.76544c1.18784 0.128 1.60256-0.28672 1.792-1.59744 1.69984-12.38528 3.39456-24.80128 5.34528-37.18144 0.45056-2.78528-0.60928-2.816-2.78528-2.816-8.86272 0.128-17.75616 0-26.65472 0.09216-1.59744 0-2.27328-0.384-2.71872-2.01728a613.61664 613.61664 0 0 0-5.82656-20.41344c-1.59744-5.21728-2.56-10.59328-4.79744-15.616-0.64-0.73728-1.50528-0.384-2.24256-0.384h-24.50944c-6.4 0-12.8 0-19.16928-0.06656-1.536 0-2.048 0.22528-1.56672 1.92 0.82944 2.816 1.12128 5.76 2.20672 8.5504-0.09728 1.59744 0.512 3.072 0.86528 4.608l5.34528 23.26016h-51.84l3.072-22.784 4.28544-30.94528c0.128-0.48128 0.32256-0.95744 0.35328-1.50528 0.384-3.96288 0.384-3.96288 4.25472-3.96288h111.13472c1.024 0 2.14528 0.31744 3.10784-0.3584 0.128-0.12288 0.31744-0.22016 0.34816-0.34816l5.44256-38.272c0.28672-1.92-0.128-2.65728-2.37056-2.65728-31.744 0.09728-63.488 0.06656-95.19616 0.06656-5.95456 0-11.93984-0.06656-17.88928 0-1.88928 0.06144-2.688-0.128-2.176-2.40128 0.73728-3.04128 0.95744-6.21056 1.37728-9.344 1.28-9.37472 2.65216-18.74944 3.90144-28.12928 0.256-2.048 1.09056-2.56 3.2-2.56 38.46656 0.09728 76.95872 0.06656 115.456 0.06656 6.97856 0 6.784 0 7.61856-6.88128 1.31072-10.624 2.816-21.21728 4.48-31.77472 0.34816-2.37056 0.15872-2.97472-2.40128-2.97472v-0.03584z m21.43744-74.42944c0.35328-2.40128-0.256-2.75456-2.56-2.75456-42.20416 0.09728-84.41344 0.06656-126.62272 0.06656-3.61472 0-3.61472 0-3.13344-3.39456 0.92672-6.4 1.75616-12.83072 2.78016-19.26144 0.22528-1.37728 0.03584-1.664-1.28-1.664h-44.8c-1.11616 0-1.43872 0.31744-1.59744 1.43872-0.92672 6.784-2.11456 13.50656-2.88256 20.28544-0.256 2.49856-1.31072 2.62656-3.328 2.62656h-146.74944c4.44928 5.98528 8.47872 11.52 12.672 16.96256a5.25312 5.25312 0 0 1 1.12128 4.15744c-1.85856 12.99456-3.68128 26.01472-5.632 39.00928-0.22528 1.59744 0.31744 1.72544 1.59744 1.72544h44.25728c1.24928 0 1.82272-0.18944 1.98144-1.69472 0.57856-5.21728 1.408-10.43456 2.11456-15.616 0.28672-2.176 0.768-3.35872 3.64544-3.35872 62.65856 0.128 125.312 0.09728 188.00128 0.09728 8.32 0 16.70656 0.03072 25.05728-0.06656 1.76128 0 2.176 0.60928 1.92 2.14528-0.83456 5.376-1.50528 10.752-2.432 16.128-0.32256 1.88416 0 2.39616 1.98144 2.36544a4918.3744 4918.3744 0 0 1 43.45856 0c1.72544 0 2.176-0.44544 2.40128-2.14528 1.28-9.56416 2.71872-19.06688 4.02944-28.63616 1.34656-9.44128 2.52928-18.944 3.968-28.38528M298.24 161.024c16.54272 0.06144 33.05472 0.06144 50.048 0.06144l-13.056 25.856h186.88c2.432 0 3.2 0.16384 2.71872 3.04128-1.92 12.032-3.35872 24.13056-5.05344 36.19328-1.664 11.97056-3.456 23.936-5.15072 35.90656l-4.4544 32.28672c-1.1776 8.576-2.49344 17.152-3.77344 25.728a26.43456 26.43456 0 0 1-0.86528 5.98528l-0.768 6.17472c-0.31744 1.75616-0.18944 3.584-0.86016 5.27872l-0.15872 1.60256c0.09216 0.73216 0.1536 1.46944-0.32256 2.10944l-0.22528 1.60256c-0.896 6.912-1.792 13.85472-2.74944 20.79744-1.31584 9.44128-2.75456 18.88256-4.06528 28.34944l-3.87072 28.38528c-1.34656 9.53856-2.75456 19.04128-4.16256 28.57984-0.18944 1.46944-0.28672 2.944-1.024 4.2496l-0.09728 0.54784c-0.4096 2.59072-1.29024 5.08416-2.59072 7.36256-5.30944 11.83744-14.56128 19.42016-26.68544 23.7056a49.42336 49.42336 0 0 1-16.41984 2.69312c-12.86144 0.06144-25.7536 0-38.656 0.06144-1.85344 0-2.36544-0.31744-2.048-2.23744 1.024-6.08256 1.76128-12.16 2.6624-18.24256 0.512-3.38944 0.5376-3.38944-2.85184-3.38944H245.95456c-3.2 0-3.29728-0.19456-2.85184-3.2l4.70528-32.80384 4.67456-32c0.31744-2.048-0.03584-4.89472 1.14688-5.94944 1.57184-1.34656 4.41856-0.41472 6.72256-0.41472 10.65472-0.06656 21.31456 0 32-0.06656 2.048 0 2.36544 0.32256 2.01728 2.46272-1.60256 10.112-2.97472 20.29056-4.44928 30.40256-0.256 1.69472 0.06656 2.56 2.14528 2.49344a502.67648 502.67648 0 0 1 18.36544 0c1.536 0 2.304-0.22016 2.56-2.07872 2.20672-16.256 4.54656-32.44544 6.88128-48.67072 0.15872-1.12128 0.35328-2.24256 0.48128-3.39456 0.31744-2.816 0.384-3.29216-1.69984-3.35872H254.336c1.95072-12.25728 3.87072-24.25344 5.69856-36.28544 0.18944-1.24928 0.82944-1.50528 1.62816-1.60256h41.53856l20.66944 0.06656c1.792 0 2.52928-0.54272 2.75456-2.24256 1.34144-9.344 2.71872-18.688 4.15744-28.06272 0.128-1.024-0.18944-1.24928-1.05472-1.21344H266.112c0.128-1.3056 0.6144-2.54464 1.408-3.584 3.61472-8.32512 7.13728-16.64 10.78272-24.96512 3.26656-7.35744 6.62528-14.72 9.95328-22.07744 0.28672-1.408 0.512-2.62144 2.56-2.62144 12.38528 0.06144 24.77056 0.03072 37.18656 0.03072 0.256 0.92672-0.16384 1.536-0.67584 2.10944l-1.18272 3.52256c-0.896 2.23744-1.95072 4.48-2.97472 6.656-1.152 2.432-0.32256 2.688 1.92 2.65728l22.784-0.03584h59.03872l36.25472-0.06144c2.20672 0 2.88256 0.44544 2.56 2.71872-1.43872 9.53344-2.71872 19.072-4.06016 28.60544-0.19456 1.47456-0.73728 2.944-0.64512 4.41856 0.128 2.56-1.28 2.65728-3.29216 2.65728-19.35872-0.06656-38.72256 0-58.112-0.09728-2.24256 0-2.88256 0.70656-3.13856 2.62656-1.28 8.76544-2.56 17.50016-3.93728 26.24-0.34816 2.33472 0.48128 2.7136 2.6624 2.7136l61.02016-0.06144c1.98656 0 3.00544-0.03072 2.59072 2.62656-1.56672 9.66144-2.816 19.38944-4.15744 29.11744-0.384 2.14528 0 4.864-1.12128 5.69856-1.34656 0.95744-3.90656 0.41472-5.91872 0.41472h-58.112c-1.82272 0-2.65728 0.128-2.944 2.36544-2.14528 16.06656-4.51072 32.1024-6.81472 48.128-0.22528 1.66912-0.38912 3.36384-0.83456 4.93056-0.512 1.85344 0.32256 2.07872 1.85856 2.07872l20.79744 0.03584 0.96256-2.52928c0.4096-1.73056 0.384-3.55328 0.64-5.28384 1.4336-8.63744 2.62144-17.28 3.77344-25.94816 0.15872-1.28 0.64-1.60256 1.792-1.60256 12.86656 0.06656 25.69728 0.03072 38.55872 0 1.05472 0 1.60256 0.09728 1.37728 1.408-0.256 1.95584-0.44544 3.93728-0.896 5.85728a2.23232 2.23232 0 0 1-0.18944 0.82944c-0.96256 7.2704-1.85856 14.53056-2.88256 21.76a1506.41664 1506.41664 0 0 1-3.072 21.504c-0.15872 1.05984-0.384 2.08384-0.57344 3.10784-0.22528 4.25472-0.22528 4.25472 4.28544 4.25472 2.49344 0 4.96128 0.03072 7.45472-0.03072a9.50784 9.50784 0 0 0 9.088-7.83872c1.50528-10.496 2.88256-20.992 4.352-31.488l5.18656-36.16256c1.152-8.13056 2.23744-16.32256 3.35872-24.448 0.128-1.05472 0.384-2.07872 0.57344-3.10272 0-2.176 0.32256-4.29056 0.83456-6.4 0.384-1.18272-0.18944-2.56 0.64-3.68128l0.128-1.536c-0.06656-0.768-0.15872-1.536 0.41472-2.20672-0.06144-3.2 0.64-6.30272 1.18272-9.44128 1.1264-8.192 2.176-16.35328 3.4304-24.51456l0.18944-2.74944 0.54272-1.28c0.96256-7.424 1.85344-14.81728 2.88256-22.17472 1.11616-8.25856 2.4576-16.48128 3.45088-24.73472 0.256-2.01728 1.28-3.10784 2.6624-4.25984l16.06144-13.50144H263.19872c2.176-4.48 4.16256-8.54528 6.17472-12.57472l26.30656-52.736c0.54272-1.09056 0.83456-2.11456 2.56-2.11456zM237.02528 354.432c0.48128 0 0.79872 0.22528 0.22528 1.24928l-9.984 26.39872-4.64384 11.97056-19.61472 50.688-10.94144 28.928c-1.44384 3.77344-2.944 7.48544-4.32128 11.264-0.384 1.024-0.768 1.59744-2.01728 1.59744h-47.04256l4.06528-10.65472 12.8-32.67584c0-0.4096 0-0.86016 0.48128-1.08544-0.06656-0.768 0.32256-1.408 0.70144-2.07872l2.94912-7.45984c0-0.18944 0.03072-0.34816 0.18944-0.47616-0.06656-0.45056 0-0.83456 0.48128-1.09056 0.11776-1.1264 0.512-2.2016 1.152-3.13344l0.79872-2.176 0.79872-2.048c0.1536-0.95232 0.512-1.86368 1.05472-2.65728a6.2464 6.2464 0 0 1 1.024-2.62144c1.1264-3.65056 2.52928-7.168 4.13184-10.624 0.1536-1.11104 0.5632-2.176 1.18272-3.10784 0.32256-1.49504 0.8704-2.92864 1.63328-4.25472l0.57344-1.56672 1.88928-4.83328 14.94528-38.59456 0.256-0.64c0.35328-0.44544 1.024-0.28672 1.59744-0.28672h44.672l0.96256-0.03072zM171.03872 261.34528l52.80256-0.06656c1.92 0 2.52416 0.54784 2.87744 2.37056 1.792 9.78944 4.224 19.48672 5.69856 29.34272 0.128 0.768 0.31744 1.50528 0.512 2.24256l5.248 24.832c0.512 2.39616 0.99328 4.79744 1.536 7.168 0.256 1.28 0.03072 1.88416-1.536 1.88416-14.9248-0.0512-29.8496-0.0512-44.76928 0-1.28 0-1.664-0.44544-1.85344-1.59744-0.384-2.304-0.83456-4.608-1.28-6.912l-5.376-25.66656c-1.28-6.33344-2.56-12.70272-3.77856-19.03616a5.56544 5.56544 0 0 0-1.60256-2.6624l-10.33216-11.38688c0.41472-0.96256 1.28-0.512 1.85344-0.512z m46.40256-87.71072l3.968 0.1536a27.81184 27.81184 0 0 1 24.50944 20.86912c0.16384 0.768 0.128 1.56672 0.22528 2.33472 1.34144 5.376 0 10.43456-2.048 15.36-7.45472 17.92-30.72 25.728-47.45728 16-0.82944-0.44544-1.75616-0.83456-2.27328-1.72544a24.1664 24.1664 0 0 1-10.55744-18.56c-1.60256-16.7424 12.00128-31.93856 29.76256-34.1504l3.84-0.28672h0.03072z" fill="#FFFFFF" p-id="37705"></path></svg>